<svg xmlns="http://www.w3.org/2000/svg" xmlns:xlink="http://www.w3.org/1999/xlink" width="940" height="607.88"><rect width="940" height="607.88" rx="0" ry="0" class="a"/><svg height="607.88" viewBox="0 0 94 60.788" width="940" xmlns="http://www.w3.org/2000/svg" xmlns:xlink="http://www.w3.org/1999/xlink"><style>@keyframes k{0%{transform:translateX(0)}16.7%{transform:translateX(-94px)}17%{transform:translateX(-282px)}23.7%{transform:translateX(-376px)}25.2%{transform:translateX(-470px)}30.5%{transform:translateX(-752px)}30.6%{transform:translateX(-1128px)}30.9%{transform:translateX(-1316px)}49.2%{transform:translateX(-1410px)}49.6%{transform:translateX(-1504px)}51.9%{transform:translateX(-1598px)}55.1%{transform:translateX(-1692px)}56.6%{transform:translateX(-1786px)}59.3%{transform:translateX(-1880px)}61.4%{transform:translateX(-1974px)}65.7%{transform:translateX(-2068px)}67%{transform:translateX(-2162px)}69.3%{transform:translateX(-2256px)}70.6%{transform:translateX(-2350px)}72.4%{transform:translateX(-2632px)}76.7%{transform:translateX(-2820px)}76.8%{transform:translateX(-2914px)}77%{transform:translateX(-3102px)}77.1%{transform:translateX(-3196px)}77.5%{transform:translateX(-3290px)}78.9%{transform:translateX(-3384px)}88.7%{transform:translateX(-3478px)}88.8%{transform:translateX(-3666px)}89.1%{transform:translateX(-3854px)}to{transform:translateX(-3948px)}}.a{fill:#282d35}.c,.d,.e,.f{fill:#a8cc8c;font-weight:700}.d,.e,.f{fill:#66c2cd}.e,.f{fill:#71bef2}.f{fill:#e88388}.g{fill:#b9c0cb}.h{fill:#a8cc8c}</style><g font-size="1.67" font-family="Monaco,Consolas,Menlo,'Bitstream Vera Sans Mono','Powerline Symbols',monospace"><defs><symbol id="1"><text y="1.67" class="c">➜</text><text x="3.006" y="1.67" class="d">trigger</text><text x="11.022" y="1.67" class="e">git:(</text><text x="16.032" y="1.67" class="f">master</text><text x="22.044" y="1.67" class="e">)</text></symbol><symbol id="2"><text y="1.67" class="c">➜</text><text x="3.006" y="1.67" class="d">trigger</text><text x="11.022" y="1.67" class="e">git:(</text><text x="16.032" y="1.67" class="f">master</text><text x="22.044" y="1.67" class="e">)</text><text x="24.048" y="1.67" class="g">ls</text></symbol><symbol id="3"><text y="1.67" class="g">README.md</text><text x="13.026" y="1.67" class="d">config</text><text x="26.052" y="1.67" class="g">index.html</text><text x="39.078" y="1.67" class="d">src</text><text x="52.104" y="1.67" class="d">test</text></symbol><symbol id="4"><text y="1.67" class="d">build</text><text x="13.026" y="1.67" class="d">dist</text><text x="26.052" y="1.67" class="g">package.json</text><text x="39.078" y="1.67" class="d">static</text></symbol><symbol id="5"><text y="1.67" class="c">➜</text><text x="3.006" y="1.67" class="d">trigger</text><text x="11.022" y="1.67" class="e">git:(</text><text x="16.032" y="1.67" class="f">master</text><text x="22.044" y="1.67" class="e">)</text><text x="24.048" y="1.67" class="g">fas</text></symbol><symbol id="6"><text y="1.67" class="c">➜</text><text x="3.006" y="1.67" class="d">trigger</text><text x="11.022" y="1.67" class="e">git:(</text><text x="16.032" y="1.67" class="f">master</text><text x="22.044" y="1.67" class="e">)</text><text x="24.048" y="1.67" class="g">fas</text><text x="28.056" y="1.67" class="g">-b</text></symbol><symbol id="7"><text y="1.67" class="c">➜</text><text x="3.006" y="1.67" class="d">trigger</text><text x="11.022" y="1.67" class="e">git:(</text><text x="16.032" y="1.67" class="f">master</text><text x="22.044" y="1.67" class="e">)</text><text x="24.048" y="1.67" class="g">fas</text><text x="28.056" y="1.67" class="g">-b</text><text x="31.062" y="1.67" class="g">blog</text></symbol><symbol id="8"><text y="1.67" class="h">✔</text><text x="2.004" y="1.67" class="g">static/css/app.30790115300ab27614ce176899523b62.css</text></symbol><symbol id="9"><text y="1.67" class="h">✔</text><text x="2.004" y="1.67" class="g">static/js/manifest.2ae2e69a05c33dfc65f8.js</text></symbol><symbol id="10"><text y="1.67" class="h">✔</text><text x="2.004" y="1.67" class="g">static/css/app.30790115300ab27614ce176899523b62.css.map</text></symbol><symbol id="11"><text y="1.67" class="h">✔</text><text x="2.004" y="1.67" class="g">static/js/manifest.2ae2e69a05c33dfc65f8.js.map</text></symbol><symbol id="12"><text y="1.67" class="h">✔</text><text x="2.004" y="1.67" class="g">index.html</text></symbol><symbol id="13"><text y="1.67" class="h">✔</text><text x="2.004" y="1.67" class="g">static/js/app.26004b482c7f5f7eb85f.js</text></symbol><symbol id="14"><text y="1.67" class="h">✔</text><text x="2.004" y="1.67" class="g">static/js/vendor.3789229cdd21a4b878b4.js</text></symbol><symbol id="15"><text y="1.67" class="h">✔</text><text x="2.004" y="1.67" class="g">static/js/app.26004b482c7f5f7eb85f.js.map</text></symbol><symbol id="16"><text y="1.67" class="h">✔</text><text x="2.004" y="1.67" class="g">static/js/vendor.3789229cdd21a4b878b4.js.map</text></symbol><symbol id="a"><path fill="transparent" d="M0 0h94v28H0z"/></symbol><symbol id="b"><path fill="#6f7683" d="M0 0h1.102v2.171H0z"/></symbol></defs><path class="a" d="M0 0h94v60.788H0z"/><g style="animation-duration:8.121144999999997s;animation-iteration-count:infinite;animation-name:k;animation-timing-function:steps(1,end)"><svg width="4042"><svg><use xlink:href="#a"/><use xlink:href="#b" x="-.004"/></svg><svg x="94"><use xlink:href="#a"/><use xlink:href="#b" x="-.004"/></svg><svg x="188"><use xlink:href="#a"/><use xlink:href="#b" x="23.996"/><use xlink:href="#1"/></svg><svg x="282"><use xlink:href="#a"/><use xlink:href="#b" x="23.996"/><use xlink:href="#1"/></svg><svg x="376"><use xlink:href="#a"/><use xlink:href="#b" x="24.996"/><text y="1.67" class="c">➜</text><text x="3.006" y="1.67" class="d">trigger</text><text x="11.022" y="1.67" class="e">git:(</text><text x="16.032" y="1.67" class="f">master</text><text x="22.044" y="1.67" class="e">)</text><text x="24.048" y="1.67" class="g">l</text></svg><svg x="470"><use xlink:href="#a"/><use xlink:href="#b" x="25.996"/><use xlink:href="#2"/></svg><svg x="564"><use xlink:href="#a"/><use xlink:href="#b" x="25.996"/><use xlink:href="#2"/></svg><svg x="658"><use xlink:href="#a"/><use xlink:href="#b" x="-.004" y="2.146"/><use xlink:href="#2"/></svg><svg x="752"><use xlink:href="#a"/><use xlink:href="#b" x="-.004" y="2.146"/><use xlink:href="#2"/></svg><svg x="846"><use xlink:href="#a"/><use xlink:href="#b" x="-.004" y="6.488"/><use xlink:href="#2"/><use xlink:href="#3" y="2.171"/><use xlink:href="#4" y="4.342"/></svg><svg x="940"><use xlink:href="#a"/><use xlink:href="#b" x="-.004" y="6.488"/><use xlink:href="#2"/><use xlink:href="#3" y="2.171"/><use xlink:href="#4" y="4.342"/></svg><svg x="1034"><use xlink:href="#a"/><use xlink:href="#b" x="-.004" y="6.488"/><use xlink:href="#2"/><use xlink:href="#3" y="2.171"/><use xlink:href="#4" y="4.342"/></svg><svg x="1128"><use xlink:href="#a"/><use xlink:href="#b" x="-.004" y="6.488"/><use xlink:href="#2"/><use xlink:href="#3" y="2.171"/><use xlink:href="#4" y="4.342"/></svg><svg x="1222"><use xlink:href="#a"/><use xlink:href="#b" x="23.996" y="6.488"/><use xlink:href="#2"/><use xlink:href="#3" y="2.171"/><use xlink:href="#4" y="4.342"/><use xlink:href="#1" y="6.513"/></svg><svg x="1316"><use xlink:href="#a"/><use xlink:href="#b" x="23.996" y="6.488"/><use xlink:href="#2"/><use xlink:href="#3" y="2.171"/><use xlink:href="#4" y="4.342"/><use xlink:href="#1" y="6.513"/></svg><svg x="1410"><use xlink:href="#a"/><use xlink:href="#b" x="24.996" y="6.488"/><use xlink:href="#2"/><use xlink:href="#3" y="2.171"/><use xlink:href="#4" y="4.342"/><text y="8.183" class="c">➜</text><text x="3.006" y="8.183" class="d">trigger</text><text x="11.022" y="8.183" class="e">git:(</text><text x="16.032" y="8.183" class="f">master</text><text x="22.044" y="8.183" class="e">)</text><text x="24.048" y="8.183" class="g">f</text></svg><svg x="1504"><use xlink:href="#a"/><use xlink:href="#b" x="25.996" y="6.488"/><use xlink:href="#2"/><use xlink:href="#3" y="2.171"/><use xlink:href="#4" y="4.342"/><text y="8.183" class="c">➜</text><text x="3.006" y="8.183" class="d">trigger</text><text x="11.022" y="8.183" class="e">git:(</text><text x="16.032" y="8.183" class="f">master</text><text x="22.044" y="8.183" class="e">)</text><text x="24.048" y="8.183" class="g">fa</text></svg><svg x="1598"><use xlink:href="#a"/><use xlink:href="#b" x="26.996" y="6.488"/><use xlink:href="#2"/><use xlink:href="#3" y="2.171"/><use xlink:href="#4" y="4.342"/><use xlink:href="#5" y="6.513"/></svg><svg x="1692"><use xlink:href="#a"/><use xlink:href="#b" x="27.996" y="6.488"/><use xlink:href="#2"/><use xlink:href="#3" y="2.171"/><use xlink:href="#4" y="4.342"/><use xlink:href="#5" y="6.513"/></svg><svg x="1786"><use xlink:href="#a"/><use xlink:href="#b" x="28.996" y="6.488"/><use xlink:href="#2"/><use xlink:href="#3" y="2.171"/><use xlink:href="#4" y="4.342"/><text y="8.183" class="c">➜</text><text x="3.006" y="8.183" class="d">trigger</text><text x="11.022" y="8.183" class="e">git:(</text><text x="16.032" y="8.183" class="f">master</text><text x="22.044" y="8.183" class="e">)</text><text x="24.048" y="8.183" class="g">fas</text><text x="28.056" y="8.183" class="g">-</text></svg><svg x="1880"><use xlink:href="#a"/><use xlink:href="#b" x="29.996" y="6.488"/><use xlink:href="#2"/><use xlink:href="#3" y="2.171"/><use xlink:href="#4" y="4.342"/><use xlink:href="#6" y="6.513"/></svg><svg x="1974"><use xlink:href="#a"/><use xlink:href="#b" x="30.996" y="6.488"/><use xlink:href="#2"/><use xlink:href="#3" y="2.171"/><use xlink:href="#4" y="4.342"/><use xlink:href="#6" y="6.513"/></svg><svg x="2068"><use xlink:href="#a"/><use xlink:href="#b" x="31.996" y="6.488"/><use xlink:href="#2"/><use xlink:href="#3" y="2.171"/><use xlink:href="#4" y="4.342"/><text y="8.183" class="c">➜</text><text x="3.006" y="8.183" class="d">trigger</text><text x="11.022" y="8.183" class="e">git:(</text><text x="16.032" y="8.183" class="f">master</text><text x="22.044" y="8.183" class="e">)</text><text x="24.048" y="8.183" class="g">fas</text><text x="28.056" y="8.183" class="g">-b</text><text x="31.062" y="8.183" class="g">b</text></svg><svg x="2162"><use xlink:href="#a"/><use xlink:href="#b" x="32.996" y="6.488"/><use xlink:href="#2"/><use xlink:href="#3" y="2.171"/><use xlink:href="#4" y="4.342"/><text y="8.183" class="c">➜</text><text x="3.006" y="8.183" class="d">trigger</text><text x="11.022" y="8.183" class="e">git:(</text><text x="16.032" y="8.183" class="f">master</text><text x="22.044" y="8.183" class="e">)</text><text x="24.048" y="8.183" class="g">fas</text><text x="28.056" y="8.183" class="g">-b</text><text x="31.062" y="8.183" class="g">bl</text></svg><svg x="2256"><use xlink:href="#a"/><use xlink:href="#b" x="33.996" y="6.488"/><use xlink:href="#2"/><use xlink:href="#3" y="2.171"/><use xlink:href="#4" y="4.342"/><text y="8.183" class="c">➜</text><text x="3.006" y="8.183" class="d">trigger</text><text x="11.022" y="8.183" class="e">git:(</text><text x="16.032" y="8.183" class="f">master</text><text x="22.044" y="8.183" class="e">)</text><text x="24.048" y="8.183" class="g">fas</text><text x="28.056" y="8.183" class="g">-b</text><text x="31.062" y="8.183" class="g">blo</text></svg><svg x="2350"><use xlink:href="#a"/><use xlink:href="#b" x="34.996" y="6.488"/><use xlink:href="#2"/><use xlink:href="#3" y="2.171"/><use xlink:href="#4" y="4.342"/><use xlink:href="#7" y="6.513"/></svg><svg x="2444"><use xlink:href="#a"/><use xlink:href="#b" x="34.996" y="6.488"/><use xlink:href="#2"/><use xlink:href="#3" y="2.171"/><use xlink:href="#4" y="4.342"/><use xlink:href="#7" y="6.513"/></svg><svg x="2538"><use xlink:href="#a"/><use xlink:href="#b" x="-.004" y="8.659"/><use xlink:href="#2"/><use xlink:href="#3" y="2.171"/><use xlink:href="#4" y="4.342"/><use xlink:href="#7" y="6.513"/></svg><svg x="2632"><use xlink:href="#a"/><use xlink:href="#b" x="-.004" y="8.659"/><use xlink:href="#2"/><use xlink:href="#3" y="2.171"/><use xlink:href="#4" y="4.342"/><use xlink:href="#7" y="6.513"/></svg><svg x="2726"><use xlink:href="#a"/><use xlink:href="#b" x="-.004" y="10.83"/><use xlink:href="#2"/><use xlink:href="#3" y="2.171"/><use xlink:href="#4" y="4.342"/><use xlink:href="#7" y="6.513"/><use xlink:href="#8" y="8.684"/></svg><svg x="2820"><use xlink:href="#a"/><use xlink:href="#b" x="-.004" y="13.001"/><use xlink:href="#2"/><use xlink:href="#3" y="2.171"/><use xlink:href="#4" y="4.342"/><use xlink:href="#7" y="6.513"/><use xlink:href="#8" y="8.684"/><use xlink:href="#9" y="10.855"/></svg><svg x="2914"><use xlink:href="#a"/><use xlink:href="#b" x="-.004" y="15.172"/><use xlink:href="#2"/><use xlink:href="#3" y="2.171"/><use xlink:href="#4" y="4.342"/><use xlink:href="#7" y="6.513"/><use xlink:href="#8" y="8.684"/><use xlink:href="#9" y="10.855"/><use xlink:href="#10" y="13.026"/></svg><svg x="3008"><use xlink:href="#a"/><use xlink:href="#b" x="-.004" y="17.343"/><use xlink:href="#2"/><use xlink:href="#3" y="2.171"/><use xlink:href="#4" y="4.342"/><use xlink:href="#7" y="6.513"/><use xlink:href="#8" y="8.684"/><use xlink:href="#9" y="10.855"/><use xlink:href="#10" y="13.026"/><use xlink:href="#11" y="15.197"/></svg><svg x="3102"><use xlink:href="#a"/><use xlink:href="#b" x="-.004" y="19.514"/><use xlink:href="#2"/><use xlink:href="#3" y="2.171"/><use xlink:href="#4" y="4.342"/><use xlink:href="#7" y="6.513"/><use xlink:href="#8" y="8.684"/><use xlink:href="#9" y="10.855"/><use xlink:href="#10" y="13.026"/><use xlink:href="#11" y="15.197"/><use xlink:href="#12" y="17.368"/></svg><svg x="3196"><use xlink:href="#a"/><use xlink:href="#b" x="-.004" y="21.685"/><use xlink:href="#2"/><use xlink:href="#3" y="2.171"/><use xlink:href="#4" y="4.342"/><use xlink:href="#7" y="6.513"/><use xlink:href="#8" y="8.684"/><use xlink:href="#9" y="10.855"/><use xlink:href="#10" y="13.026"/><use xlink:href="#11" y="15.197"/><use xlink:href="#12" y="17.368"/><use xlink:href="#13" y="19.539"/></svg><svg x="3290"><use xlink:href="#a"/><use xlink:href="#b" x="-.004" y="23.856"/><use xlink:href="#2"/><use xlink:href="#3" y="2.171"/><use xlink:href="#4" y="4.342"/><use xlink:href="#7" y="6.513"/><use xlink:href="#8" y="8.684"/><use xlink:href="#9" y="10.855"/><use xlink:href="#10" y="13.026"/><use xlink:href="#11" y="15.197"/><use xlink:href="#12" y="17.368"/><use xlink:href="#13" y="19.539"/><use xlink:href="#14" y="21.71"/></svg><svg x="3384"><use xlink:href="#a"/><use xlink:href="#b" x="-.004" y="26.027"/><use xlink:href="#2"/><use xlink:href="#3" y="2.171"/><use xlink:href="#4" y="4.342"/><use xlink:href="#7" y="6.513"/><use xlink:href="#8" y="8.684"/><use xlink:href="#9" y="10.855"/><use xlink:href="#10" y="13.026"/><use xlink:href="#11" y="15.197"/><use xlink:href="#12" y="17.368"/><use xlink:href="#13" y="19.539"/><use xlink:href="#14" y="21.71"/><use xlink:href="#15" y="23.881"/></svg><svg x="3478"><use xlink:href="#a"/><use xlink:href="#b" x="-.004" y="28.198"/><use xlink:href="#2"/><use xlink:href="#3" y="2.171"/><use xlink:href="#4" y="4.342"/><use xlink:href="#7" y="6.513"/><use xlink:href="#8" y="8.684"/><use xlink:href="#9" y="10.855"/><use xlink:href="#10" y="13.026"/><use xlink:href="#11" y="15.197"/><use xlink:href="#12" y="17.368"/><use xlink:href="#13" y="19.539"/><use xlink:href="#14" y="21.71"/><use xlink:href="#15" y="23.881"/><use xlink:href="#16" y="26.052"/></svg><svg x="3572"><use xlink:href="#a"/><use xlink:href="#b" x="-.004" y="28.198"/><use xlink:href="#2"/><use xlink:href="#3" y="2.171"/><use xlink:href="#4" y="4.342"/><use xlink:href="#7" y="6.513"/><use xlink:href="#8" y="8.684"/><use xlink:href="#9" y="10.855"/><use xlink:href="#10" y="13.026"/><use xlink:href="#11" y="15.197"/><use xlink:href="#12" y="17.368"/><use xlink:href="#13" y="19.539"/><use xlink:href="#14" y="21.71"/><use xlink:href="#15" y="23.881"/><use xlink:href="#16" y="26.052"/></svg><svg x="3666"><use xlink:href="#a"/><use xlink:href="#b" x="-.004" y="28.198"/><use xlink:href="#2"/><use xlink:href="#3" y="2.171"/><use xlink:href="#4" y="4.342"/><use xlink:href="#7" y="6.513"/><use xlink:href="#8" y="8.684"/><use xlink:href="#9" y="10.855"/><use xlink:href="#10" y="13.026"/><use xlink:href="#11" y="15.197"/><use xlink:href="#12" y="17.368"/><use xlink:href="#13" y="19.539"/><use xlink:href="#14" y="21.71"/><use xlink:href="#15" y="23.881"/><use xlink:href="#16" y="26.052"/></svg><svg x="3760"><use xlink:href="#a"/><use xlink:href="#b" x="23.996" y="28.198"/><use xlink:href="#2"/><use xlink:href="#3" y="2.171"/><use xlink:href="#4" y="4.342"/><use xlink:href="#7" y="6.513"/><use xlink:href="#8" y="8.684"/><use xlink:href="#9" y="10.855"/><use xlink:href="#10" y="13.026"/><use xlink:href="#11" y="15.197"/><use xlink:href="#12" y="17.368"/><use xlink:href="#13" y="19.539"/><use xlink:href="#14" y="21.71"/><use xlink:href="#15" y="23.881"/><use xlink:href="#16" y="26.052"/><use xlink:href="#1" y="28.223"/></svg><svg x="3854"><use xlink:href="#a"/><use xlink:href="#b" x="23.996" y="28.198"/><use xlink:href="#2"/><use xlink:href="#3" y="2.171"/><use xlink:href="#4" y="4.342"/><use xlink:href="#7" y="6.513"/><use xlink:href="#8" y="8.684"/><use xlink:href="#9" y="10.855"/><use xlink:href="#10" y="13.026"/><use xlink:href="#11" y="15.197"/><use xlink:href="#12" y="17.368"/><use xlink:href="#13" y="19.539"/><use xlink:href="#14" y="21.71"/><use xlink:href="#15" y="23.881"/><use xlink:href="#16" y="26.052"/><use xlink:href="#1" y="28.223"/></svg><svg x="3948"><use xlink:href="#a"/><use xlink:href="#b" x="-.004" y="30.369"/><use xlink:href="#2"/><use xlink:href="#3" y="2.171"/><use xlink:href="#4" y="4.342"/><use xlink:href="#7" y="6.513"/><use xlink:href="#8" y="8.684"/><use xlink:href="#9" y="10.855"/><use xlink:href="#10" y="13.026"/><use xlink:href="#11" y="15.197"/><use xlink:href="#12" y="17.368"/><use xlink:href="#13" y="19.539"/><use xlink:href="#14" y="21.71"/><use xlink:href="#15" y="23.881"/><use xlink:href="#16" y="26.052"/><use xlink:href="#1" y="28.223"/></svg></svg></g></g></svg></svg>